<?xml version="1.0" encoding="UTF-8"?>
<svg version="1.1" xmlns="http://www.w3.org/2000/svg" width="512" height="512">
<path d="M0 0 C3.13137008 2.71657507 6.35939707 5.31399788 9.57568359 7.92871094 C19.17755912 15.73873067 28.72424998 23.61279799 38.14941406 31.63525391 C42.04776223 34.94461652 46.02438041 38.14108742 50.03271484 41.31542969 C53.02051152 43.72830185 55.94140181 46.21542173 58.86083984 48.70996094 C63.31723164 52.51490259 67.85255671 56.18544506 72.48583984 59.77246094 C78.25573787 64.24526263 83.78673856 68.94803905 89.27294922 73.76318359 C92.77176194 76.82785717 96.31435238 79.78870212 99.98583984 82.64746094 C119.65393744 98.28441126 131.40498779 119.88699084 134.40319061 144.78561592 C134.88691374 150.86996225 134.76781621 156.99024105 134.77197266 163.09057617 C134.77660763 164.67991754 134.7816332 166.2692578 134.78701782 167.8585968 C134.80008231 172.16077981 134.80657563 176.46294725 134.81102848 180.76514697 C134.81397012 183.46089111 134.81807703 186.15663109 134.82253265 188.85237312 C134.83619473 197.30939253 134.8458665 205.76640233 134.84973454 214.223432 C134.85420592 223.9429202 134.8717164 233.6622671 134.90073514 243.38171238 C134.92245504 250.92178262 134.93244436 258.46181342 134.93377566 266.00191456 C134.93481676 270.49214539 134.94057408 274.9822432 134.95859528 279.47244072 C134.97525432 283.70541039 134.9771465 287.9381496 134.96845627 292.17114067 C134.9676952 293.71045557 134.97190296 295.24978379 134.98191452 296.78906631 C135.15375816 324.89662087 126.96494772 349.59362771 107.04833984 370.02636719 C85.21357731 390.8138228 60.29337752 393.93832696 31.48901367 393.78857422 C27.78771546 393.77241455 24.08749678 393.78853976 20.38623047 393.80761719 C17.99625414 393.80563577 15.60627847 393.80179421 13.21630859 393.79589844 C12.12851608 393.80197113 11.04072357 393.80804382 9.91996765 393.81430054 C-3.50965315 393.69281468 -14.67028195 390.49724823 -24.67822266 381.29199219 C-36.25383117 369.04439142 -37.67616344 355.72812441 -37.69412041 339.59604263 C-37.69781917 336.92056234 -37.71464057 334.24544127 -37.73487854 331.57003784 C-37.78995626 323.96912345 -37.82091545 316.36815782 -37.84545898 308.76708984 C-37.86142525 304.10112533 -37.89173391 299.43541859 -37.93022346 294.76958847 C-37.94178906 293.00357698 -37.94780307 291.23751924 -37.94790459 289.47146988 C-37.94922261 272.64733474 -40.0690573 259.36944211 -51.97119141 246.72949219 C-59.75245472 239.22478428 -68.42694992 235.5044561 -79.26416016 234.95996094 C-91.88556783 235.42220994 -101.12790745 240.74329219 -109.57666016 249.64746094 C-119.72085234 261.52553273 -120.67740434 274.17983515 -120.69412041 289.16831398 C-120.69782021 291.8398684 -120.71464497 294.5110634 -120.73487854 297.18254089 C-120.78994217 304.77242307 -120.82089315 312.36235678 -120.84545898 319.95239258 C-120.8614405 324.6118776 -120.89176608 329.27110539 -120.93022346 333.93045616 C-120.94177736 335.69285007 -120.94780296 337.45529016 -120.94790459 339.21772194 C-120.94914949 355.0614756 -122.27256484 368.48591204 -133.49462891 380.68652344 C-144.71427719 391.2905804 -156.72198433 393.71061677 -171.70166016 393.69824219 C-172.86938965 393.70252731 -174.03711914 393.70681244 -175.24023438 393.71122742 C-177.70442052 393.71694867 -180.16862355 393.71748732 -182.6328125 393.71313477 C-186.35007584 393.70999396 -190.06652731 393.73339658 -193.78369141 393.75878906 C-211.22557441 393.80579257 -227.46630019 393.30258661 -243.38916016 385.39746094 C-244.77167969 384.73423828 -244.77167969 384.73423828 -246.18212891 384.05761719 C-267.69731501 373.10277631 -281.70469292 353.82649968 -289.38916016 331.39746094 C-292.96884794 319.45584624 -293.5418598 308.08153694 -293.55029297 295.7043457 C-293.55492794 294.11500434 -293.55995351 292.52566407 -293.56533813 290.93632507 C-293.57840262 286.63414207 -293.58489594 282.33197463 -293.58934879 278.0297749 C-293.59229043 275.33403077 -293.59639734 272.63829078 -293.60085297 269.94254875 C-293.61451504 261.48552934 -293.62418681 253.02851954 -293.62805486 244.57148987 C-293.63252623 234.85200168 -293.65003671 225.13265477 -293.67905545 215.4132095 C-293.70077535 207.87313926 -293.71076468 200.33310846 -293.71209598 192.79300731 C-293.71313707 188.30277648 -293.71889439 183.81267868 -293.73691559 179.32248116 C-293.75357463 175.08951148 -293.75546681 170.85677227 -293.74677658 166.6237812 C-293.74601551 165.08446631 -293.75022327 163.54513809 -293.76023483 162.00585556 C-293.93399597 133.58466699 -285.52987339 109.02494889 -265.51416016 88.27246094 C-261.67145155 84.53586263 -257.55771357 81.17431133 -253.38134766 77.81933594 C-250.15308003 75.20637781 -246.98705379 72.52910497 -243.82666016 69.83496094 C-239.27812363 65.96574698 -234.66406934 62.19966172 -229.98291016 58.49121094 C-226.90836667 56.00935053 -223.89736971 53.4589758 -220.88916016 50.89746094 C-216.31493826 47.00247385 -211.67755976 43.20972578 -206.96728516 39.47949219 C-203.97948848 37.06662002 -201.05859819 34.57950014 -198.13916016 32.08496094 C-193.68276836 28.28001928 -189.14744329 24.60947682 -184.51416016 21.02246094 C-178.74111961 16.54722318 -173.21251258 11.83647419 -167.71606445 7.02734375 C-163.54594738 3.38373186 -159.32358646 -0.16300506 -154.96337891 -3.57910156 C-153.00825923 -5.11590277 -151.07954971 -6.67238843 -149.15869141 -8.25097656 C-101.08846951 -47.43057374 -44.65508952 -39.11933462 0 0 Z " fill="#000000" transform="translate(335.38916015625,76.6025390625)"/>
</svg>
