<?xml version="1.0" encoding="UTF-8"?>
<svg version="1.1" xmlns="http://www.w3.org/2000/svg" width="512" height="512">
<path d="M0 0 C1.17620022 -0.00644889 2.35240043 -0.01289778 3.56424308 -0.0195421 C5.48883365 -0.01489629 5.48883365 -0.01489629 7.45230484 -0.01015663 C8.83629169 -0.01389476 10.22027642 -0.01849693 11.60425782 -0.02388728 C15.40234867 -0.03611274 19.2003514 -0.03585735 22.99845743 -0.03349853 C27.09675483 -0.03309024 31.19502402 -0.04413065 35.29330826 -0.05361366 C43.32101266 -0.0702224 51.34868769 -0.07572316 59.37640783 -0.07683842 C65.90269019 -0.077789 72.42896286 -0.08189981 78.95524216 -0.08823967 C97.4625511 -0.10585213 115.96983685 -0.11507859 134.47715423 -0.11357872 C135.97357052 -0.11345885 135.97357052 -0.11345885 137.50021744 -0.11333656 C138.49904789 -0.1132548 139.49787834 -0.11317304 140.52697638 -0.1130888 C156.71206152 -0.11227601 172.89705358 -0.13141183 189.08211181 -0.1596133 C205.70483909 -0.18834857 222.327521 -0.20215322 238.95027375 -0.20042574 C248.281046 -0.19976204 257.61172068 -0.20524569 266.94247055 -0.22678185 C274.88746531 -0.24500214 282.83231827 -0.24933405 290.77732489 -0.235763 C294.82923788 -0.22923747 298.88087891 -0.22910093 302.93276596 -0.2464695 C306.64639808 -0.26222406 310.35954313 -0.25931272 314.07316354 -0.24190123 C316.04385782 -0.23739123 318.01456734 -0.25247002 319.98520255 -0.26838052 C329.84381794 -0.19196629 338.1463045 1.67583393 345.51095963 8.55414391 C352.41017015 16.22775561 354.34691831 23.99184254 354.28271866 34.09012413 C354.28528193 35.5678928 354.28528193 35.5678928 354.28789699 37.07551539 C354.29118883 40.37364155 354.28019308 43.67156386 354.26926041 46.96967125 C354.26869623 49.33505816 354.26901298 51.70044543 354.27014542 54.06583214 C354.27071967 60.48679031 354.25895357 66.90767389 354.2449975 73.32861471 C354.23281304 79.35923287 354.23175128 85.38985929 354.22969376 91.42048748 C354.22531924 103.36332843 354.21201674 115.30614202 354.19308853 127.24896812 C354.17472343 138.84857611 354.16057001 150.44817666 354.15207291 162.04779625 C354.15154746 162.76309885 354.15102201 163.47840144 354.15048064 164.21537988 C354.14787052 167.80393313 354.14534312 171.39248643 354.14285684 174.98103976 C354.12213192 204.73980162 354.08676407 234.49853274 354.04220963 264.25726891 C351.40220963 264.25726891 348.76220963 264.25726891 346.04220963 264.25726891 C346.04220963 269.53726891 346.04220963 274.81726891 346.04220963 280.25726891 C347.36220963 280.91726891 348.68220963 281.57726891 350.04220963 282.25726891 C351.82345963 283.85101891 351.82345963 283.85101891 353.54220963 285.75726891 C354.10939713 286.36570641 354.67658463 286.97414391 355.26095963 287.60101891 C360.56091951 295.50446785 362.68029915 305.34699342 365.29220963 314.38226891 C365.83748306 316.24625328 365.83748306 316.24625328 366.39377213 318.14789391 C367.28098605 321.18309942 368.16369081 324.21953755 369.04220963 327.25726891 C370.43343033 327.27128746 370.43343033 327.27128746 371.8527565 327.28558922 C375.32728842 327.32986736 378.80063369 327.39159604 382.2746315 327.46478844 C383.7719141 327.4928383 385.26934038 327.51413164 386.766819 327.528265 C403.84052942 327.6990021 403.84052942 327.6990021 411.28439713 334.22211266 C411.82322525 334.87308922 412.36205338 335.52406578 412.91720963 336.19476891 C413.4715065 336.84316734 414.02580338 337.49156578 414.59689713 338.15961266 C419.0763306 344.66084448 418.71684691 351.62867807 418.04220963 359.25726891 C416.3613538 365.91686224 411.57842641 370.44274338 406.04220963 374.25726891 C394.88330857 378.72082933 382.06071388 376.25726891 370.04220963 376.25726891 C370.04220963 410.57726891 370.04220963 444.89726891 370.04220963 480.25726891 C335.72220963 480.25726891 301.40220963 480.25726891 266.04220963 480.25726891 C265.71220963 466.39726891 265.38220963 452.53726891 265.04220963 438.25726891 C255.63720963 434.29726891 255.63720963 434.29726891 246.04220963 430.25726891 C239.60828799 425.17785709 233.64429044 419.88327053 229.91720963 412.44476891 C229.6052565 411.84019859 229.29330338 411.23562828 228.97189713 410.61273766 C227.65488484 407.27593763 226.91225884 403.73746576 226.04220963 400.25726891 C215.48220963 400.25726891 204.92220963 400.25726891 194.04220963 400.25726891 C194.04220963 402.89726891 194.04220963 405.53726891 194.04220963 408.25726891 C168.12092071 408.35074655 142.1996571 408.42126502 116.27823353 408.46451759 C104.24222616 408.48513509 92.20632357 408.51324032 80.17038345 408.55902672 C69.67878729 408.59891916 59.18726702 408.62470762 48.69559711 408.63362288 C43.14129073 408.63883351 37.58720145 408.65106377 32.03296471 408.68018913 C26.80205164 408.70739608 21.57144456 408.71570315 16.34046745 408.70969963 C14.42367514 408.7107975 12.50687229 408.71871977 10.5901413 408.73409081 C-7.89185842 408.87499989 -7.89185842 408.87499989 -14.95779037 404.25726891 C-15.76732162 403.78805016 -16.57685287 403.31883141 -17.41091537 402.83539391 C-24.11296701 397.88170357 -27.62805126 392.23329778 -29.95779037 384.25726891 C-30.21079004 381.21525407 -30.21079004 381.21525407 -30.21505928 377.92466164 C-30.22150817 376.66485993 -30.22795707 375.40505822 -30.23460138 374.1070807 C-30.23165937 372.71673368 -30.22852395 371.32638707 -30.22521591 369.93604088 C-30.22895357 368.45305899 -30.23355556 366.97007907 -30.23894656 365.48710227 C-30.25117778 361.4153753 -30.25091595 357.34373049 -30.24855781 353.27198935 C-30.24814967 348.87921158 -30.25918853 344.48646017 -30.26867294 340.09369469 C-30.2852848 331.48846736 -30.29078258 322.88326744 -30.2918977 314.27802542 C-30.29284813 307.28263572 -30.29695815 300.28725505 -30.30329895 293.29186821 C-30.3209122 273.45645892 -30.33013774 253.62107127 -30.328638 233.7856541 C-30.32855809 232.71635534 -30.32847818 231.64705659 -30.32839584 230.54535484 C-30.32831408 229.47474964 -30.32823232 228.40414443 -30.32814808 227.30109665 C-30.32733525 209.95203943 -30.34647191 192.60306904 -30.37467258 175.25403693 C-30.40340368 157.43801699 -30.41721273 139.6220394 -30.41548502 121.8059957 C-30.41482118 111.80452988 -30.42031098 101.80315508 -30.44184113 91.80171013 C-30.46005592 83.28579256 -30.46439783 74.77000727 -30.45082228 66.25407866 C-30.44429402 61.91053395 -30.4441702 57.567243 -30.46152878 53.22372246 C-30.47727104 49.24364047 -30.47438433 45.26401317 -30.45696051 41.28394219 C-30.45389313 39.8478811 -30.45751319 38.41178597 -30.46868066 36.97576502 C-30.54732954 26.14048098 -29.28762175 16.95448734 -21.66091537 8.78851891 C-15.41006072 3.16848445 -8.47204298 0.01178279 0 0 Z " fill="#E2E3E1" transform="translate(77.95779037475586,15.742731094360352)"/>
<path d="M0 0 C1.17620022 -0.00644889 2.35240043 -0.01289778 3.56424308 -0.0195421 C5.48883365 -0.01489629 5.48883365 -0.01489629 7.45230484 -0.01015663 C8.83629169 -0.01389476 10.22027642 -0.01849693 11.60425782 -0.02388728 C15.40234867 -0.03611274 19.2003514 -0.03585735 22.99845743 -0.03349853 C27.09675483 -0.03309024 31.19502402 -0.04413065 35.29330826 -0.05361366 C43.32101266 -0.0702224 51.34868769 -0.07572316 59.37640783 -0.07683842 C65.90269019 -0.077789 72.42896286 -0.08189981 78.95524216 -0.08823967 C97.4625511 -0.10585213 115.96983685 -0.11507859 134.47715423 -0.11357872 C135.97357052 -0.11345885 135.97357052 -0.11345885 137.50021744 -0.11333656 C138.49904789 -0.1132548 139.49787834 -0.11317304 140.52697638 -0.1130888 C156.71206152 -0.11227601 172.89705358 -0.13141183 189.08211181 -0.1596133 C205.70483909 -0.18834857 222.327521 -0.20215322 238.95027375 -0.20042574 C248.281046 -0.19976204 257.61172068 -0.20524569 266.94247055 -0.22678185 C274.88746531 -0.24500214 282.83231827 -0.24933405 290.77732489 -0.235763 C294.82923788 -0.22923747 298.88087891 -0.22910093 302.93276596 -0.2464695 C306.64639808 -0.26222406 310.35954313 -0.25931272 314.07316354 -0.24190123 C316.04385782 -0.23739123 318.01456734 -0.25247002 319.98520255 -0.26838052 C329.84381794 -0.19196629 338.1463045 1.67583393 345.51095963 8.55414391 C352.41017015 16.22775561 354.34691831 23.99184254 354.28271866 34.09012413 C354.28528193 35.5678928 354.28528193 35.5678928 354.28789699 37.07551539 C354.29118883 40.37364155 354.28019308 43.67156386 354.26926041 46.96967125 C354.26869623 49.33505816 354.26901298 51.70044543 354.27014542 54.06583214 C354.27071967 60.48679031 354.25895357 66.90767389 354.2449975 73.32861471 C354.23281304 79.35923287 354.23175128 85.38985929 354.22969376 91.42048748 C354.22531924 103.36332843 354.21201674 115.30614202 354.19308853 127.24896812 C354.17472343 138.84857611 354.16057001 150.44817666 354.15207291 162.04779625 C354.15154746 162.76309885 354.15102201 163.47840144 354.15048064 164.21537988 C354.14787052 167.80393313 354.14534312 171.39248643 354.14285684 174.98103976 C354.12213192 204.73980162 354.08676407 234.49853274 354.04220963 264.25726891 C348.76220963 264.25726891 343.48220963 264.25726891 338.04220963 264.25726891 C338.04220963 203.53726891 338.04220963 142.81726891 338.04220963 80.25726891 C221.88220963 80.25726891 105.72220963 80.25726891 -13.95779037 80.25726891 C-13.85466537 129.63351891 -13.75154037 179.00976891 -13.64529037 229.88226891 C-13.62039536 245.48975426 -13.59550034 261.09723961 -13.56985092 277.17767906 C-13.53329925 291.13256446 -13.53329925 291.13256446 -13.49277878 305.08743858 C-13.47479632 311.31718457 -13.46498039 317.5468785 -13.46067429 323.77664757 C-13.45568205 330.95855458 -13.4403962 338.14035101 -13.41230654 345.32220622 C-13.39825829 348.99730594 -13.38889086 352.67225072 -13.3927511 356.34737897 C-13.39677785 360.28056516 -13.37780372 364.2134465 -13.35651779 368.14658165 C-13.36136594 369.2960597 -13.36621408 370.44553776 -13.37120914 371.62984848 C-13.32115938 377.22535548 -13.22852019 381.48166525 -9.95779037 386.25726891 C-4.94151538 390.78415122 -1.81961864 391.40702507 4.76160049 391.41548729 C5.97085349 391.42289426 5.97085349 391.42289426 7.20453584 391.43045086 C9.92077 391.4458764 12.63698044 391.45420012 15.35324478 391.46259117 C17.29440395 391.47216573 19.23556101 391.48217555 21.17671585 391.49258995 C26.45947337 391.51969089 31.74223988 391.54067231 37.02502871 391.56059194 C42.54105687 391.58241955 48.05705718 391.60982398 53.5730629 391.63664818 C64.02423303 391.68661877 74.47541858 391.73154137 84.92661893 391.77467054 C96.82246704 391.82400565 108.71828722 391.87893757 120.61410832 391.93435013 C145.09011623 392.0482372 169.56615122 392.15486302 194.04220963 392.25726891 C194.04220963 397.53726891 194.04220963 402.81726891 194.04220963 408.25726891 C168.12091503 408.34989916 142.19966037 408.42126501 116.27823353 408.46451759 C104.24222616 408.48513509 92.20632357 408.51324032 80.17038345 408.55902672 C69.67878729 408.59891916 59.18726702 408.62470762 48.69559711 408.63362288 C43.14129073 408.63883351 37.58720145 408.65106377 32.03296471 408.68018913 C26.80205164 408.70739608 21.57144456 408.71570315 16.34046745 408.70969963 C14.42367514 408.7107975 12.50687229 408.71871977 10.5901413 408.73409081 C-7.89185842 408.87499989 -7.89185842 408.87499989 -14.95779037 404.25726891 C-15.76732162 403.78805016 -16.57685287 403.31883141 -17.41091537 402.83539391 C-24.11296701 397.88170357 -27.62805126 392.23329778 -29.95779037 384.25726891 C-30.21079004 381.21525407 -30.21079004 381.21525407 -30.21505928 377.92466164 C-30.22150817 376.66485993 -30.22795707 375.40505822 -30.23460138 374.1070807 C-30.23165937 372.71673368 -30.22852395 371.32638707 -30.22521591 369.93604088 C-30.22895357 368.45305899 -30.23355556 366.97007907 -30.23894656 365.48710227 C-30.25117778 361.4153753 -30.25091595 357.34373049 -30.24855781 353.27198935 C-30.24814967 348.87921158 -30.25918853 344.48646017 -30.26867294 340.09369469 C-30.2852848 331.48846736 -30.29078258 322.88326744 -30.2918977 314.27802542 C-30.29284813 307.28263572 -30.29695815 300.28725505 -30.30329895 293.29186821 C-30.3209122 273.45645892 -30.33013774 253.62107127 -30.328638 233.7856541 C-30.32855809 232.71635534 -30.32847818 231.64705659 -30.32839584 230.54535484 C-30.32831408 229.47474964 -30.32823232 228.40414443 -30.32814808 227.30109665 C-30.32733525 209.95203943 -30.34647191 192.60306904 -30.37467258 175.25403693 C-30.40340368 157.43801699 -30.41721273 139.6220394 -30.41548502 121.8059957 C-30.41482118 111.80452988 -30.42031098 101.80315508 -30.44184113 91.80171013 C-30.46005592 83.28579256 -30.46439783 74.77000727 -30.45082228 66.25407866 C-30.44429402 61.91053395 -30.4441702 57.567243 -30.46152878 53.22372246 C-30.47727104 49.24364047 -30.47438433 45.26401317 -30.45696051 41.28394219 C-30.45389313 39.8478811 -30.45751319 38.41178597 -30.46868066 36.97576502 C-30.54732954 26.14048098 -29.28762175 16.95448734 -21.66091537 8.78851891 C-15.41006072 3.16848445 -8.47204298 0.01178279 0 0 Z " fill="#000000" transform="translate(77.95779037475586,15.742731094360352)"/>
<path d="M0 0 C10.65214414 7.96787177 13.33693631 19.82075166 16.75 32 C17.16464002 33.45723761 17.57999874 34.91427092 17.99609375 36.37109375 C19.00569553 39.91174467 20.00553345 43.45506418 21 47 C21.92748047 47.0093457 22.85496094 47.01869141 23.81054688 47.02832031 C27.2850788 47.07259846 30.75842406 47.13432714 34.23242188 47.20751953 C35.72970447 47.2355694 37.22713075 47.25686274 38.72460938 47.27099609 C55.79831979 47.4417332 55.79831979 47.4417332 63.2421875 53.96484375 C63.78101563 54.61582031 64.31984375 55.26679688 64.875 55.9375 C65.42929687 56.58589844 65.98359375 57.23429687 66.5546875 57.90234375 C71.03412097 64.40357557 70.67463728 71.37140917 70 79 C68.31914417 85.65959333 63.53621678 90.18547447 58 94 C46.84109894 98.46356042 34.01850425 96 22 96 C22 130.32 22 164.64 22 200 C-12.32 200 -46.64 200 -82 200 C-82.33 186.14 -82.66 172.28 -83 158 C-89.27 155.36 -95.54 152.72 -102 150 C-111.73814823 142.31198824 -118.65866497 134.08021126 -122 122 C-122.04640625 120.97777344 -122.0928125 119.95554687 -122.140625 118.90234375 C-124.04080867 110.27378243 -130.3945111 103.6672081 -137.45605469 98.63525391 C-145.4819313 94.93193883 -154.70437561 96.09799214 -163.35177612 96.40802002 C-179.0494096 96.9191887 -186.83768671 94.30530584 -199.35546875 84.37109375 C-205.50150519 79.52496112 -210.18561688 79.3853856 -218 80 C-218 74.72 -218 69.44 -218 64 C-216.164375 64.144375 -214.32875 64.28875 -212.4375 64.4375 C-204.25379742 63.96679259 -199.39868219 60.21112464 -192.875 55.5 C-182.19770988 47.85062452 -173.97837066 45.87700845 -161 47 C-161.15936035 46.38592285 -161.3187207 45.7718457 -161.48291016 45.13916016 C-163.22944089 37.91389939 -162.22262818 31.77214013 -158.60546875 25.328125 C-152.81543976 16.93187859 -145.86901986 14.40245696 -136.16723633 12.42163086 C-133.19957843 11.89052372 -130.22838087 11.40462223 -127.25 10.9375 C-126.18579834 10.76541016 -125.12159668 10.59332031 -124.02514648 10.41601562 C-117.63442304 9.3904583 -111.23639555 8.4364585 -104.82421875 7.5546875 C-99.66431841 6.80626477 -94.52126805 5.96139231 -89.375 5.125 C-79.00013104 3.43923122 -68.60626928 1.94624425 -58.19433594 0.50927734 C-50.94625646 -0.51330267 -43.79455733 -1.78146508 -36.625 -3.25 C-23.54274462 -5.84244467 -12.09174741 -6.68526329 0 0 Z " fill="#010101" transform="translate(426,296)"/>
<path d="M0 0 C1.28992355 -0.00554901 2.57984711 -0.01109802 3.90885925 -0.01681519 C7.44006301 -0.03104557 10.97048642 -0.01401989 14.50161552 0.00946999 C18.20017049 0.02960069 21.89869375 0.02369828 25.59729004 0.0213623 C31.80799199 0.02141585 38.01838947 0.0411583 44.22900391 0.07324219 C51.40512854 0.11013413 58.5808544 0.11891753 65.75706148 0.11194468 C72.66570695 0.10563518 79.57421594 0.11640218 86.48283386 0.13591003 C89.42052661 0.14407593 92.35814952 0.14679508 95.29585266 0.1452179 C99.3992621 0.14417419 103.50214772 0.1683704 107.60546875 0.1953125 C109.43219368 0.1909166 109.43219368 0.1909166 111.29582214 0.18643188 C112.41455215 0.19778168 113.53328217 0.20913147 114.68591309 0.2208252 C115.65559776 0.22455391 116.62528244 0.22828262 117.6243515 0.23212433 C120.81111338 0.6879518 122.7085672 1.73792472 125.30273438 3.61523438 C126.58450617 6.17877796 126.43439305 7.9999609 126.44317627 10.87129211 C126.44888641 11.98589813 126.45459656 13.10050415 126.46047974 14.24888611 C126.46215652 16.09178978 126.46215652 16.09178978 126.46386719 17.97192383 C126.46883209 19.2614093 126.473797 20.55089478 126.47891235 21.87945557 C126.49204498 25.42294775 126.49848312 28.96642098 126.50292301 32.50993371 C126.50585268 34.72345946 126.50995731 36.93698002 126.51442719 39.15050316 C126.52810512 46.07512206 126.53777001 52.9997291 126.54162908 59.92436057 C126.54610906 67.91948662 126.56365283 75.91444164 126.59262967 83.90951568 C126.61424534 90.08793053 126.62433331 96.26629727 126.62567019 102.44474953 C126.62671842 106.13545215 126.63262966 109.82599405 126.65048981 113.51665688 C126.67002973 117.63466391 126.665682 121.75231309 126.65917969 125.87036133 C126.66839447 127.09289108 126.67760925 128.31542084 126.68710327 129.57499695 C126.67874954 131.25959518 126.67874954 131.25959518 126.67022705 132.97822571 C126.67169361 133.95180684 126.67316017 134.92538797 126.67467117 135.92847157 C126.2285751 139.1509393 125.25260056 141.02617656 123.30273438 143.61523438 C120.23295611 144.6384938 118.13517792 144.74584412 114.91969299 144.75567627 C113.80226715 144.76138641 112.68484131 144.76709656 111.53355408 144.77297974 C110.30697586 144.7740976 109.08039764 144.77521545 107.81665039 144.77636719 C105.8797937 144.78381454 105.8797937 144.78381454 103.90380859 144.79141235 C100.36044275 144.8045276 96.81709585 144.81097931 93.27370954 144.81542301 C91.06035371 144.81835446 88.84700305 144.82245935 86.63364983 144.82692719 C79.70957035 144.84059828 72.78550271 144.85026748 65.86141068 144.85412908 C57.86628476 144.85861249 49.87132957 144.876175 41.87625557 144.90512967 C35.69698693 144.92673245 29.51776639 144.93683256 23.33846039 144.93817019 C19.64724567 144.93921901 15.95619154 144.94514317 12.26501656 144.96298981 C8.14930952 144.98250256 4.033961 144.97818718 -0.08178711 144.97167969 C-1.30634109 144.98089447 -2.53089508 144.99010925 -3.79255676 144.99960327 C-5.47292526 144.99124954 -5.47292526 144.99124954 -7.1872406 144.98272705 C-8.64704676 144.98492689 -8.64704676 144.98492689 -10.13634396 144.98717117 C-13.16308884 144.5475803 -14.51369087 143.73069904 -16.69726562 141.61523438 C-17.7183331 138.55203195 -17.83276227 136.44756544 -17.85116577 133.23892212 C-17.85976624 132.12294144 -17.8683667 131.00696075 -17.87722778 129.85716248 C-17.88148773 128.6321553 -17.88574768 127.40714813 -17.89013672 126.14501953 C-17.89831421 124.85538803 -17.9064917 123.56575653 -17.91491699 122.23704529 C-17.9411053 117.95948367 -17.95643877 113.68191239 -17.97070312 109.40429688 C-17.97606362 107.9312273 -17.98144113 106.4581578 -17.98683548 104.98508835 C-18.00845715 98.85832123 -18.02719463 92.73155672 -18.03845787 86.60476112 C-18.05470421 77.82550601 -18.08790613 69.04669294 -18.14485872 60.26760447 C-18.18354737 54.09341919 -18.20308909 47.91935221 -18.20837843 41.74504888 C-18.21203268 38.05758045 -18.22406106 34.37058382 -18.25648117 30.68324661 C-18.29212941 26.5699758 -18.2881938 22.45765682 -18.28076172 18.34423828 C-18.29716705 17.12327957 -18.31357239 15.90232086 -18.33047485 14.6443634 C-18.29529362 9.90071101 -18.21222175 6.57758405 -15.95437622 2.35812378 C-10.77469549 -0.41353853 -5.78519667 -0.0630066 0 0 Z " fill="#000000" transform="translate(105.697265625,119.384765625)"/>
<path d="M0 0 C1.14631905 -0.00384115 2.2926381 -0.00768229 3.47369409 -0.01163983 C4.74389767 -0.01077335 6.01410126 -0.00990687 7.32279587 -0.00901413 C8.67730601 -0.01159641 10.03181538 -0.01460919 11.38632369 -0.01801753 C15.12134291 -0.02610701 18.85634293 -0.02787818 22.59136987 -0.028615 C26.61466888 -0.0304622 30.63795784 -0.03800788 34.66125107 -0.04475021 C43.46497236 -0.05834828 52.26868912 -0.06436065 61.07241917 -0.06876087 C66.56713139 -0.07152103 72.06184185 -0.07575798 77.55655289 -0.08026505 C92.76262044 -0.09246005 107.96868657 -0.10275864 123.17475891 -0.10614014 C124.1485234 -0.1063597 125.12228789 -0.10657927 126.12556039 -0.10680549 C127.10168932 -0.10702377 128.07781825 -0.10724204 129.08352685 -0.10746694 C131.06161896 -0.10791041 133.03971108 -0.10835697 135.01780319 -0.10880661 C135.99901059 -0.10902804 136.98021798 -0.10924947 137.99115893 -0.10947761 C153.89142138 -0.11342588 169.79163801 -0.13087977 185.69188276 -0.15416613 C202.00709592 -0.1778678 218.32228608 -0.19034146 234.63751674 -0.19150805 C243.80165014 -0.19242553 252.96572386 -0.1981959 262.12984085 -0.21632767 C269.93339209 -0.23171274 277.73686521 -0.23685859 285.54042873 -0.22858956 C289.52291884 -0.22467728 293.50525156 -0.22564071 297.4877224 -0.23964691 C301.13338195 -0.25235143 304.77876528 -0.25121891 308.42442426 -0.2390562 C310.36843742 -0.23616303 312.31245521 -0.24806115 314.25643086 -0.26047826 C320.94165389 -0.22239347 326.14604554 -0.1231945 331.27708054 4.66658401 C342.0993818 18.81882413 335.63254929 18.48284077 335.63254929 48.13142776 C219.47254929 48.13142776 103.31254929 48.13142776 -16.36745071 48.13142776 C-16.36745071 11.13142776 -16.36745071 11.13142776 -12.36745071 5.13142776 C-8.02673887 1.30746733 -5.73597625 0.00718284 0 0 Z " fill="#0092B8" transform="translate(80.36745071411133,31.868572235107422)"/>
<path d="M0 0 C2.52209007 1.11630839 4.97359593 2.326479 7.42871094 3.58349609 C9.46094066 4.60497102 11.49351979 5.62575096 13.52636719 6.64599609 C14.66348145 7.22091797 15.8005957 7.79583984 16.97216797 8.38818359 C20.47166982 10.13073532 24.01984202 11.75287837 27.58071899 13.36550903 C48.975697 23.08235984 65.73471393 32.99444802 80.80371094 51.27099609 C83.98457612 49.76153098 86.10240999 48.19157784 88.55371094 45.64599609 C89.16730469 45.01435547 89.78089844 44.38271484 90.41308594 43.73193359 C90.87199219 43.24982422 91.33089844 42.76771484 91.80371094 42.27099609 C89.60159792 37.46254401 89.60159792 37.46254401 83.80371094 31.27099609 C98.32371094 31.27099609 112.84371094 31.27099609 127.80371094 31.27099609 C127.80371094 65.59099609 127.80371094 99.91099609 127.80371094 135.27099609 C104.04371094 135.27099609 80.28371094 135.27099609 55.80371094 135.27099609 C55.55371094 110.02099609 55.55371094 110.02099609 55.50585938 102.06298828 C55.47649479 99.98125996 55.44566993 97.89955151 55.41308594 95.81787109 C55.41139404 94.19679443 55.41139404 94.19679443 55.40966797 92.54296875 C55.37993896 90.99053467 55.37993896 90.99053467 55.34960938 89.40673828 C55.34072693 88.50961121 55.33184448 87.61248413 55.32269287 86.68817139 C54.64023423 83.509598 53.27252056 82.31875723 50.80371094 80.27099609 C48.44182878 79.03246916 48.44182878 79.03246916 45.84667969 78.12255859 C44.89857422 77.75646484 43.95046875 77.39037109 42.97363281 77.01318359 C40.9981924 76.27320199 39.02163993 75.5361818 37.04394531 74.80224609 C26.77592869 70.82573593 21.66283399 66.28984218 16.93261719 56.29833984 C15.89487468 53.51546633 15.48325074 51.45716854 15.36621094 48.52099609 C14.84656523 39.05553662 2.40159852 30.78461173 -4.07128906 24.39599609 C-6.15489161 22.33897657 -8.23514929 20.27865625 -10.31347656 18.21630859 C-11.22726074 17.31412598 -12.14104492 16.41194336 -13.08251953 15.48242188 C-15.54162662 12.90970393 -16.11739478 11.98104466 -16.50878906 8.45849609 C-16.12464548 4.5402316 -14.9037259 3.05806342 -12.19628906 0.27099609 C-8.3113688 -1.67146404 -4.03088679 -1.33795331 0 0 Z " fill="#F4BD99" transform="translate(304.1962890625,360.72900390625)"/>
<path d="M0 0 C36.96 0 73.92 0 112 0 C112 36.96 112 73.92 112 112 C106.72 112 101.44 112 96 112 C95.896875 109.89625 95.79375 107.7925 95.6875 105.625 C94.79527885 93.64029965 91.53578887 82.49037664 82.125 74.375 C81.09375 73.59125 80.0625 72.8075 79 72 C80.00031703 69.31468293 81.07668099 66.86670222 82.5078125 64.37890625 C87.37123803 55.90902748 88.88062217 47.96874993 86.296875 38.39453125 C85.36702254 36.10536058 84.30076786 34.09905842 83 32 C82.36384766 30.93652344 82.36384766 30.93652344 81.71484375 29.8515625 C77.36261451 23.32928024 71.83013041 20.51759884 64.6875 17.6875 C53.30250875 15.56487451 45.20870513 17.29125732 35.75 23.75 C29.22256127 28.89913494 25.70403704 35.96582366 24.55859375 44.15625 C24.18870379 54.36998572 27.07281051 60.33901703 32 69 C32.33 69.99 32.66 70.98 33 72 C32.49210937 72.37769531 31.98421875 72.75539063 31.4609375 73.14453125 C23.86436446 79.21894452 17.99268396 88.1160611 16.75146484 97.97387695 C16.58418703 100.10827278 16.46815303 102.23601225 16.375 104.375 C16.25125 106.89125 16.1275 109.4075 16 112 C10.72 112 5.44 112 0 112 C0 75.04 0 38.08 0 0 Z " fill="#0092B8" transform="translate(104,136)"/>
<path d="M0 0 C0.61488281 0.38285156 1.22976563 0.76570313 1.86328125 1.16015625 C7.28839776 6.44586934 9.00226195 13.54064643 10.9375 20.625 C11.3396875 22.02975586 11.3396875 22.02975586 11.75 23.46289062 C12.87912122 27.49834683 13.6875 30.70829567 13.6875 34.9375 C0.1575 34.9375 -13.3725 34.9375 -27.3125 34.9375 C-24.3425 31.4725 -24.3425 31.4725 -21.3125 27.9375 C-19.1634288 24.3847136 -19.1634288 24.3847136 -19.3125 21.9375 C-19.9725 21.9375 -20.6325 21.9375 -21.3125 21.9375 C-26.07994186 17.63517442 -26.07994186 17.63517442 -27.3125 13.9375 C-31.12363707 15.64737846 -33.01717874 17.76407915 -35.32104492 21.11962891 C-40.34624622 27.94804168 -45.80882007 34.24531132 -54.47613525 35.93395996 C-65.50867773 37.46909954 -76.78668154 36.84748868 -87.87841797 36.40661621 C-91.56321735 36.28035042 -95.24689602 36.23786533 -98.93349934 36.19864464 C-103.34826488 36.14915416 -107.7618655 36.05918805 -112.17578125 35.9609375 C-113.00994379 35.94432446 -113.84410633 35.92771141 -114.70354652 35.91059494 C-117.06322912 35.85474592 -119.42011707 35.77095945 -121.77856445 35.67724609 C-122.47101761 35.66334839 -123.16347076 35.64945068 -123.87690735 35.63513184 C-128.55189338 35.40693966 -131.01814204 34.24123961 -134.3125 30.9375 C-135.5297941 27.92658228 -135.68604449 25.15572943 -135.3125 21.9375 C-132.45532706 17.60565716 -129.60372622 16.5494793 -124.67407227 15.3996582 C-120.23091669 14.53013546 -115.74394131 14.0305192 -111.25 13.5 C-103.28170114 12.5139246 -95.48460963 11.28536461 -87.62890625 9.62109375 C-82.22249683 8.5066984 -76.77339182 7.73277551 -71.3125 6.9375 C-68.1037591 6.46105275 -64.89561599 5.980635 -61.6875 5.5 C-60.40721924 5.30857422 -60.40721924 5.30857422 -59.10107422 5.11328125 C-53.31348503 4.24541408 -47.5303812 3.35208689 -41.75 2.4375 C-40.97785156 2.31600586 -40.20570313 2.19451172 -39.41015625 2.06933594 C-35.34150841 1.42682863 -31.27672074 0.76609617 -27.21484375 0.08203125 C-26.3731665 -0.0571875 -25.53148926 -0.19640625 -24.66430664 -0.33984375 C-23.07265149 -0.60341996 -21.48189146 -0.87249262 -19.89233398 -1.1484375 C-5.31772671 -3.54135548 -5.31772671 -3.54135548 0 0 Z " fill="#F2BB98" transform="translate(415.3125,309.0625)"/>
<path d="M0 0 C5.28 0 10.56 0 16 0 C16 52.8 16 105.6 16 160 C10.72 160 5.44 160 0 160 C0 107.2 0 54.4 0 0 Z " fill="#000000" transform="translate(448,56)"/>
<path d="M0 0 C7.70633077 3.18304967 10.63611219 10.89999088 14 18 C15.37686662 17.25343232 16.75138835 16.50253972 18.125 15.75 C18.95257813 15.29753906 19.78015625 14.84507812 20.6328125 14.37890625 C23.18388269 12.96098913 23.18388269 12.96098913 26 10.6875 C30.01132954 8.43112714 33.4904622 8.16573551 38 9 C42.71934841 10.98546689 45.21509158 13.18520798 48.4296875 17.1171875 C52.60424511 21.42322724 55.33563075 22.74157795 61.3203125 23.1953125 C63.92184786 23.22159063 66.52433508 23.19724069 69.125 23.125 C70.47656361 23.12305344 71.82814159 23.1256269 73.1796875 23.1328125 C76.45342435 23.1328125 79.72706697 23.07254219 83 23 C83 28.28 83 33.56 83 39 C78.30210665 39.13847502 73.61140171 39.25764748 68.91308594 39.32958984 C67.31843975 39.35959836 65.72395634 39.40042047 64.12988281 39.45263672 C49.18078367 39.92973563 49.18078367 39.92973563 44.109375 36.19140625 C42.45214844 34.63500977 42.45214844 34.63500977 41 33 C39.04764009 30.91657622 37.09312862 28.9504153 35 27 C31.26350806 27.24803266 28.48411247 29.47721512 25.4375 31.5 C19.65272392 35.33035377 14.96632559 37.19389607 8 36 C2.35166345 33.01618089 -0.86589668 27.88535324 -3 22 C-3 21.34 -3 20.68 -3 20 C-3.66 20 -4.32 20 -5 20 C-5.391875 21.216875 -5.78375 22.43375 -6.1875 23.6875 C-8.24277915 29.87309974 -10.62676756 35.93090361 -13 42 C-18.23272633 40.36041242 -23.15196636 38.61047965 -28 36 C-26.98438193 30.23292577 -24.85869263 25.00483778 -22.75 19.5625 C-22.36714844 18.53833984 -21.98429687 17.51417969 -21.58984375 16.45898438 C-17.27886024 5.32107548 -12.76885885 -1.30962655 0 0 Z " fill="#030303" transform="translate(109,337)"/>
<path d="M0 0 C42.24 0 84.48 0 128 0 C128 5.28 128 10.56 128 16 C85.76 16 43.52 16 0 16 C0 10.72 0 5.44 0 0 Z " fill="#000000" transform="translate(264,232)"/>
<path d="M0 0 C42.24 0 84.48 0 128 0 C128 5.28 128 10.56 128 16 C85.76 16 43.52 16 0 16 C0 10.72 0 5.44 0 0 Z " fill="#000000" transform="translate(264,200)"/>
<path d="M0 0 C42.24 0 84.48 0 128 0 C128 5.28 128 10.56 128 16 C85.76 16 43.52 16 0 16 C0 10.72 0 5.44 0 0 Z " fill="#000000" transform="translate(264,168)"/>
<path d="M0 0 C31.68 0 63.36 0 96 0 C96 5.28 96 10.56 96 16 C64.32 16 32.64 16 0 16 C0 10.72 0 5.44 0 0 Z " fill="#000000" transform="translate(128,280)"/>
<path d="M0 0 C31.68 0 63.36 0 96 0 C96 5.28 96 10.56 96 16 C64.32 16 32.64 16 0 16 C0 10.72 0 5.44 0 0 Z " fill="#000000" transform="translate(296,136)"/>
<path d="M0 0 C35.97 0 71.94 0 109 0 C109 5.28 109 10.56 109 16 C99.21797683 16.34364317 89.44017791 16.61668528 79.65340233 16.77718258 C75.10513542 16.8543511 70.5613251 16.95829836 66.015625 17.1315918 C40.2957558 18.0868463 21.81047743 15.16451268 0 1 C0 0.67 0 0.34 0 0 Z " fill="#0092B8" transform="translate(339,360)"/>
<path d="M0 0 C6.55377411 3.43524963 10.69615183 9.27019619 13.1015625 16.1015625 C13.1015625 20.7215625 13.1015625 25.3415625 13.1015625 30.1015625 C-2.7384375 30.1015625 -18.5784375 30.1015625 -34.8984375 30.1015625 C-34.8984375 12.28066698 -34.8984375 12.28066698 -28.8046875 5.9140625 C-20.13655821 -2.1761915 -11.3104223 -4.27637875 0 0 Z " fill="#F3BA1A" transform="translate(170.8984375,217.8984375)"/>
<path d="M0 0 C5.67476113 1.96434039 9.31400331 5.62800662 12 11 C12.59057744 16.67862925 12.29370905 21.16922672 9 26 C4.57092517 30.57795129 1.3260831 31.81241265 -4.875 32.3125 C-9.23455451 32.24767391 -11.6384369 30.82676897 -15 28 C-19.3022759 23.23261319 -20.36282503 19.56252705 -20.28125 13.28125 C-19.69180611 8.50020514 -16.85179203 5.75038822 -13.375 2.6875 C-8.92314854 -0.47565762 -5.3540278 -0.48837416 0 0 Z " fill="#F0B71A" transform="translate(164,168)"/>
<path d="M0 0 C0 5.28 0 10.56 0 16 C-23.9106422 17.26692217 -23.9106422 17.26692217 -32.40234375 10.7265625 C-34 9 -34 9 -34 7 C-24.9324776 -2.79913179 -12.15713652 -0.64415442 0 0 Z " fill="#0091B7" transform="translate(273,360)"/>
<path d="M0 0 C5.28 0 10.56 0 16 0 C16 5.28 16 10.56 16 16 C10.72 16 5.44 16 0 16 C0 10.72 0 5.44 0 0 Z " fill="#000000" transform="translate(96,280)"/>
<path d="M0 0 C5.28 0 10.56 0 16 0 C16 5.28 16 10.56 16 16 C10.72 16 5.44 16 0 16 C0 10.72 0 5.44 0 0 Z " fill="#000000" transform="translate(448,232)"/>
<path d="M0 0 C5.28 0 10.56 0 16 0 C16 5.28 16 10.56 16 16 C10.72 16 5.44 16 0 16 C0 10.72 0 5.44 0 0 Z " fill="#000000" transform="translate(264,136)"/>
<path d="M0 0 C5.28 0 10.56 0 16 0 C16 5.28 16 10.56 16 16 C10.72 16 5.44 16 0 16 C0 10.72 0 5.44 0 0 Z " fill="#000000" transform="translate(144,48)"/>
<path d="M0 0 C5.28 0 10.56 0 16 0 C16 5.28 16 10.56 16 16 C10.72 16 5.44 16 0 16 C0 10.72 0 5.44 0 0 Z " fill="#000000" transform="translate(112,48)"/>
<path d="M0 0 C5.28 0 10.56 0 16 0 C16 5.28 16 10.56 16 16 C10.72 16 5.44 16 0 16 C0 10.72 0 5.44 0 0 Z " fill="#000000" transform="translate(80,48)"/>
<path d="M0 0 C10.9030837 -0.43612335 10.9030837 -0.43612335 15 3 C16.40457737 5.80915474 16.24895157 7.88810534 16 11 C14.22015595 14.1359157 13.47691793 14.84102736 10 16 C8.27204648 16.06802967 6.54164635 16.08495645 4.8125 16.0625 C3.224375 16.041875 1.63625 16.02125 0 16 C0 10.72 0 5.44 0 0 Z " fill="#DEDFDE" transform="translate(464,360)"/>
</svg>
