<?xml version="1.0" encoding="UTF-8"?>
<svg version="1.1" xmlns="http://www.w3.org/2000/svg" width="512" height="512">
<path d="M0 0 C2.39335253 0.58580009 4.78720993 1.16954083 7.18153381 1.75135803 C13.45387968 3.28125031 19.71914529 4.83835165 25.98321533 6.4017334 C32.23807052 7.95794129 38.49909294 9.48888099 44.75976562 11.02148438 C52.0585129 12.80958894 59.35603787 14.60214013 66.64828491 16.41659546 C77.1406605 19.02703263 87.63357916 21.61726909 98.16845703 24.05126953 C99.8754341 24.44980944 101.5823506 24.84860886 103.28919983 25.24769592 C106.31126516 25.95414791 109.33690909 26.63939038 112.3669281 27.31077576 C128.24110188 30.94857906 141.2591081 37.53299112 150.72265625 51.28515625 C155.84724197 60.59669126 157.43896075 69.70962858 157.36231995 80.22409058 C157.36926547 81.45769857 157.376211 82.69130656 157.383367 83.96229661 C157.39839109 87.35174111 157.39574372 90.74029736 157.38521397 94.12969995 C157.37817764 97.79854038 157.39425332 101.4672941 157.4072113 105.1361084 C157.42878338 112.31012077 157.42874185 119.4839741 157.42058576 126.6580082 C157.41426943 132.49285765 157.41543772 138.32766094 157.42185783 144.16250992 C157.42275949 144.99500101 157.42366114 145.82749211 157.42459012 146.68521021 C157.42644145 148.37676557 157.42830401 150.06832092 157.43017768 151.75987627 C157.44673271 167.59990927 157.43805678 183.43985304 157.4211921 199.27988066 C157.40649972 213.74829075 157.42112109 228.21649309 157.44996227 242.68487643 C157.47940678 257.56760987 157.49031368 272.4502476 157.48078007 287.33300889 C157.47975759 289.01872959 157.47876298 290.70445031 157.47779655 292.39017105 C157.47732016 293.21942253 157.47684377 294.04867401 157.47635295 294.90305432 C157.47419535 300.72459002 157.483958 306.54603442 157.49856758 312.3675499 C157.51614749 319.47131561 157.515893 326.5748167 157.49321593 333.67857228 C157.48212429 337.2976783 157.47879424 340.91631908 157.49751663 344.53540421 C157.66004681 378.4812175 157.66004681 378.4812175 144.84765625 392.41015625 C144.34878906 393.02246094 143.84992188 393.63476562 143.3359375 394.265625 C133.0334668 406.02134093 116.16342918 408.72871058 101.7109375 412.05078125 C99.54914584 412.56139291 97.38780284 413.07390733 95.22688293 413.5881958 C90.71052759 414.66207861 86.19249836 415.72849225 81.67340088 416.79077148 C71.80017818 419.12161265 61.95989744 421.58450518 52.1152916 424.0327301 C45.66402822 425.63181083 39.2067845 427.20651275 32.74972343 428.78199005 C27.2931899 430.11431342 21.83915708 431.45561228 16.3894043 432.81542969 C10.94959313 434.17234538 5.50458851 435.50625958 0.0554142 436.82505035 C-1.97033322 437.31934731 -3.99420711 437.821405 -6.01584816 438.33223724 C-22.09039001 442.38619837 -40.69927154 446.54335215 -56.15234375 438.41015625 C-56.99796875 437.99765625 -57.84359375 437.58515625 -58.71484375 437.16015625 C-71.11497079 430.50642955 -77.73141941 419.58445335 -82.52734375 406.72265625 C-83.06119759 403.89323087 -83.21737224 401.55678773 -83.19140625 398.703125 C-83.1857666 397.89770264 -83.18012695 397.09228027 -83.17431641 396.26245117 C-83.16706543 395.65119385 -83.15981445 395.03993652 -83.15234375 394.41015625 C-83.84734356 394.41384342 -84.54234337 394.41753059 -85.25840378 394.4213295 C-102.21168232 394.50987579 -119.1648871 394.57596045 -136.11834335 394.61740494 C-144.31709883 394.6379827 -152.51569943 394.66601106 -160.71435547 394.71191406 C-167.86482708 394.75192918 -175.01518647 394.77762381 -182.16576695 394.78651023 C-185.94789996 394.79170031 -189.72971204 394.80379733 -193.51174164 394.83307648 C-197.08063039 394.86047846 -200.64906985 394.86855206 -204.21805382 394.86258698 C-206.13379564 394.86419078 -208.04948992 394.88558273 -209.96510315 394.90783691 C-223.58140387 394.84380243 -235.13574309 390.4952505 -245.37109375 381.44921875 C-256.27987734 370.16282342 -259.36170765 357.36793307 -259.44750977 342.11791992 C-259.4590521 340.68943392 -259.47953984 339.26099181 -259.5090332 337.83276367 C-259.55185799 335.7554024 -259.56789349 333.67931114 -259.578125 331.6015625 C-259.59270752 330.36607666 -259.60729004 329.13059082 -259.62231445 327.85766602 C-258.9100125 322.63251493 -256.40403079 319.59925894 -252.65234375 316.03515625 C-247.48734366 313.6371205 -242.75211495 313.6563409 -237.15234375 314.41015625 C-232.18485958 316.71648818 -229.7263556 319.62527116 -227.15234375 324.41015625 C-226.58478955 327.86701134 -226.54705163 331.28700792 -226.52734375 334.78515625 C-226.64538244 346.29776001 -226.64538244 346.29776001 -221.71484375 356.28515625 C-186.12692974 385.79708494 -129.38353568 362.04897506 -83.15234375 362.41015625 C-83.15234375 267.37015625 -83.15234375 172.33015625 -83.15234375 74.41015625 C-157.67377486 62.25384339 -157.67377486 62.25384339 -220.96484375 79.84765625 C-227.25747831 87.21902816 -226.39741846 95.46429876 -226.49414062 104.7109375 C-226.71406843 111.86114848 -228.3606865 115.75808186 -233.65234375 120.78515625 C-238.81734384 123.183192 -243.55257255 123.1639716 -249.15234375 122.41015625 C-254.1283678 120.09985937 -256.46467454 117.12678996 -259.15234375 112.41015625 C-259.65405273 109.04199219 -259.65405273 109.04199219 -259.6484375 105.39453125 C-259.64989273 104.73866028 -259.65134796 104.08278931 -259.65284729 103.40704346 C-259.65119596 102.02538595 -259.63972071 100.64370858 -259.61889648 99.26220703 C-259.59010682 97.17919021 -259.59826853 95.09875286 -259.61132812 93.015625 C-259.59082517 79.08537437 -256.30410694 67.48991639 -246.89453125 56.859375 C-235.0887506 45.56606393 -222.62804904 42.09237619 -206.78149414 42.18310547 C-205.43072518 42.18367029 -204.07995561 42.18335164 -202.72918701 42.18222046 C-199.07883711 42.18164871 -195.42861974 42.19337405 -191.77830052 42.20736837 C-187.95730471 42.21990552 -184.13630557 42.22104858 -180.31529236 42.22341919 C-173.08709738 42.22962521 -165.8589632 42.2460241 -158.63079494 42.26611817 C-150.39863335 42.28850455 -142.1664688 42.29947748 -133.93428433 42.30950904 C-117.00693569 42.33039114 -100.07964616 42.36554998 -83.15234375 42.41015625 C-83.16328819 41.48987137 -83.16328819 41.48987137 -83.17445374 40.55099487 C-83.18012863 39.74381012 -83.18580353 38.93662537 -83.19165039 38.10498047 C-83.20259483 36.90625809 -83.20259483 36.90625809 -83.21376038 35.68331909 C-82.90568416 24.28074872 -75.42968753 13.26908738 -67.52734375 5.59765625 C-47.46486899 -11.54160517 -23.26479034 -5.87025831 0 0 Z " fill="#D84848" transform="translate(323.15234375,37.58984375)"/>
<path d="M0 0 C2.39335253 0.58580009 4.78720993 1.16954083 7.18153381 1.75135803 C13.45387968 3.28125031 19.71914529 4.83835165 25.98321533 6.4017334 C32.23807052 7.95794129 38.49909294 9.48888099 44.75976562 11.02148438 C52.0585129 12.80958894 59.35603787 14.60214013 66.64828491 16.41659546 C77.1406605 19.02703263 87.63357916 21.61726909 98.16845703 24.05126953 C99.8754341 24.44980944 101.5823506 24.84860886 103.28919983 25.24769592 C106.31126516 25.95414791 109.33690909 26.63939038 112.3669281 27.31077576 C128.24110188 30.94857906 141.2591081 37.53299112 150.72265625 51.28515625 C156.29315232 61.46111491 157.4247145 71.18880652 157.30175781 82.63378906 C157.30052956 84.14710829 157.30107139 85.66042981 157.30321884 87.17374802 C157.30411409 91.19058643 157.28109755 95.20693869 157.2527771 99.22366333 C157.22983045 103.0063819 157.22891566 106.78898809 157.22607422 110.57177734 C157.20516678 121.60130023 157.14932166 132.63073456 157.09765625 143.66015625 C157.01515625 168.32765625 156.93265625 192.99515625 156.84765625 218.41015625 C77.64765625 218.41015625 -1.55234375 218.41015625 -83.15234375 218.41015625 C-83.15234375 170.89015625 -83.15234375 123.37015625 -83.15234375 74.41015625 C-104.12796875 74.53390625 -125.10359375 74.65765625 -146.71484375 74.78515625 C-153.33361572 74.81915527 -159.9523877 74.8531543 -166.77172852 74.88818359 C-172.71392974 74.92810035 -172.71392974 74.92810035 -178.65611267 74.97061157 C-181.29918284 74.98827682 -183.94209553 75.00282013 -186.58518982 75.0128479 C-190.59279998 75.02826701 -194.60015435 75.05925978 -198.60766602 75.09130859 C-199.78162965 75.09348074 -200.95559328 75.09565289 -202.16513157 75.09789085 C-212.32086741 75.09075611 -212.32086741 75.09075611 -220.96484375 79.84765625 C-227.25747831 87.21902816 -226.39741846 95.46429876 -226.49414062 104.7109375 C-226.71406843 111.86114848 -228.3606865 115.75808186 -233.65234375 120.78515625 C-238.81734384 123.183192 -243.55257255 123.1639716 -249.15234375 122.41015625 C-254.1283678 120.09985937 -256.46467454 117.12678996 -259.15234375 112.41015625 C-259.65405273 109.04199219 -259.65405273 109.04199219 -259.6484375 105.39453125 C-259.64989273 104.73866028 -259.65134796 104.08278931 -259.65284729 103.40704346 C-259.65119596 102.02538595 -259.63972071 100.64370858 -259.61889648 99.26220703 C-259.59010682 97.17919021 -259.59826853 95.09875286 -259.61132812 93.015625 C-259.59082517 79.08537437 -256.30410694 67.48991639 -246.89453125 56.859375 C-235.0887506 45.56606393 -222.62804904 42.09237619 -206.78149414 42.18310547 C-205.43072518 42.18367029 -204.07995561 42.18335164 -202.72918701 42.18222046 C-199.07883711 42.18164871 -195.42861974 42.19337405 -191.77830052 42.20736837 C-187.95730471 42.21990552 -184.13630557 42.22104858 -180.31529236 42.22341919 C-173.08709738 42.22962521 -165.8589632 42.2460241 -158.63079494 42.26611817 C-150.39863335 42.28850455 -142.1664688 42.29947748 -133.93428433 42.30950904 C-117.00693569 42.33039114 -100.07964616 42.36554998 -83.15234375 42.41015625 C-83.16328819 41.48987137 -83.16328819 41.48987137 -83.17445374 40.55099487 C-83.18012863 39.74381012 -83.18580353 38.93662537 -83.19165039 38.10498047 C-83.20259483 36.90625809 -83.20259483 36.90625809 -83.21376038 35.68331909 C-82.90568416 24.28074872 -75.42968753 13.26908738 -67.52734375 5.59765625 C-47.46486899 -11.54160517 -23.26479034 -5.87025831 0 0 Z " fill="#ED5757" transform="translate(323.15234375,37.58984375)"/>
<path d="M0 0 C2.53138452 1.32340295 4.80560621 2.65073692 7.171875 4.21875 C7.85903595 4.66135162 8.5461969 5.10395325 9.25418091 5.55996704 C11.51361366 7.02416019 13.75830619 8.50880463 16 10 C17.14181732 10.75769684 17.14181732 10.75769684 18.30670166 11.53070068 C24.18671987 15.44361339 30.03208866 19.40698683 35.875 23.375 C39.65360123 25.93688805 43.43372252 28.49652033 47.21484375 31.0546875 C48.1766304 31.70552307 49.13841705 32.35635864 50.12934875 33.0269165 C57.05978425 37.7088344 64.02334779 42.33853037 71.00390625 46.9453125 C72.94092728 48.22606014 74.87793914 49.50682164 76.81494141 50.78759766 C79.60794157 52.63381402 82.40262849 54.47715787 85.20330811 56.31170654 C87.78479643 58.00283681 90.35969194 59.7036038 92.93359375 61.40625 C93.69515274 61.90085724 94.45671173 62.39546448 95.24134827 62.90505981 C99.84146518 65.96368129 103.47213628 68.94427256 106 74 C106.48464757 79.30728816 106.69997037 84.26674004 104.6875 89.25 C95.9753228 98.16478597 84.19796881 104.55323881 73.81689453 111.34432983 C54.89974504 123.72233163 36.11202635 136.28246072 17.41015625 148.9831543 C16.53721924 149.57475342 15.66428223 150.16635254 14.76489258 150.77587891 C13.13697029 151.87928182 11.51041251 152.98470171 9.88549805 154.0925293 C8.80522339 154.82439453 8.80522339 154.82439453 7.703125 155.57104492 C7.08083008 155.99431564 6.45853516 156.41758636 5.81738281 156.85368347 C-0.03795541 160.54694553 -5.15044843 160.73453636 -12 160 C-16.63535813 157.84786944 -20.01334219 154.76206608 -22 150 C-22.47845787 146.19348841 -22.37844376 142.45361202 -22.25 138.625 C-22.23195312 137.60277344 -22.21390625 136.58054687 -22.1953125 135.52734375 C-22.14839491 133.01725251 -22.08276729 130.50912236 -22 128 C-23.1645874 128.02094727 -24.3291748 128.04189453 -25.52905273 128.06347656 C-29.88439449 128.13633507 -34.23968328 128.18196518 -38.59545898 128.21972656 C-40.47413213 128.2397382 -42.3527438 128.26695637 -44.23120117 128.30175781 C-46.94465373 128.3507397 -49.65727696 128.37307329 -52.37109375 128.390625 C-53.19959335 128.41127014 -54.02809296 128.43191528 -54.88169861 128.45318604 C-64.17846109 128.45669634 -72.30549223 124.37293753 -79 118 C-85.07136903 110.29521697 -86.31431799 102.8590117 -86.3359375 93.265625 C-86.3425943 92.23242126 -86.3492511 91.19921753 -86.35610962 90.13470459 C-86.36621209 87.95277683 -86.37092739 85.77081831 -86.37060547 83.58886719 C-86.37496728 80.27486356 -86.41128237 76.96220482 -86.44921875 73.6484375 C-86.4550899 71.52083785 -86.45905729 69.39323192 -86.4609375 67.265625 C-86.47530853 66.28611877 -86.48967957 65.30661255 -86.50448608 64.29742432 C-86.44507985 55.21381235 -83.98984476 47.26248529 -77.703125 40.53125 C-70.20136136 33.78654508 -62.56271954 31.68361926 -52.6640625 31.8046875 C-51.34503433 31.80893234 -51.34503433 31.80893234 -49.99935913 31.81326294 C-47.20776406 31.82440288 -44.4164971 31.84949589 -41.625 31.875 C-39.72526507 31.8850378 -37.82552508 31.89416225 -35.92578125 31.90234375 C-31.28372893 31.92432194 -26.64191998 31.9588089 -22 32 C-22.02094727 31.36497559 -22.04189453 30.72995117 -22.06347656 30.07568359 C-22.14704581 27.17561924 -22.19878774 24.27580884 -22.25 21.375 C-22.28351563 20.37597656 -22.31703125 19.37695312 -22.3515625 18.34765625 C-22.43315123 12.18770715 -22.1132688 8.68372214 -18 4 C-12.65463516 -1.0780966 -6.95421294 -1.39596365 0 0 Z " fill="#FFCA27" transform="translate(118,176)"/>
<path d="M0 0 C63.36 0 126.72 0 192 0 C192 5.78624679 191.82311498 8.0385027 188 12 C179.16584211 19.15313319 169.31604996 25.13017247 159.81689453 31.34432983 C140.89974504 43.72233163 122.11202635 56.28246072 103.41015625 68.9831543 C102.53721924 69.57475342 101.66428223 70.16635254 100.76489258 70.77587891 C99.13697029 71.87928182 97.51041251 72.98470171 95.88549805 74.0925293 C95.16531494 74.58043945 94.44513184 75.06834961 93.703125 75.57104492 C93.08083008 75.99431564 92.45853516 76.41758636 91.81738281 76.85368347 C85.96204459 80.54694553 80.84955157 80.73453636 74 80 C69.36464187 77.84786944 65.98665781 74.76206608 64 70 C63.52154213 66.19348841 63.62155624 62.45361202 63.75 58.625 C63.76804688 57.60277344 63.78609375 56.58054687 63.8046875 55.52734375 C63.85160509 53.01725251 63.91723271 50.50912236 64 48 C62.8354126 48.02094727 61.6708252 48.04189453 60.47094727 48.06347656 C56.11560551 48.13633507 51.76031672 48.18196518 47.40454102 48.21972656 C45.52586787 48.2397382 43.6472562 48.26695637 41.76879883 48.30175781 C39.05534627 48.3507397 36.34272304 48.37307329 33.62890625 48.390625 C32.80040665 48.41127014 31.97190704 48.43191528 31.11830139 48.45318604 C21.82153891 48.45669634 13.69450777 44.37293753 7 38 C-2.25792848 26.2513598 0 15.94192373 0 0 Z " fill="#FFB300" transform="translate(32,256)"/>
</svg>
